<mxfile host="app.diagrams.net" agent="Mozilla/5.0 (Macintosh; Intel Mac OS X 10_15_7) AppleWebKit/537.36 (KHTML, like Gecko) Chrome/133.0.0.0 Safari/537.36" version="26.0.16">
  <diagram id="C5RBs43oDa-KdzZeNtuy" name="Page-1">
    <mxGraphModel dx="1911" dy="1608" grid="0" gridSize="10" guides="1" tooltips="1" connect="1" arrows="1" fold="1" page="0" pageScale="1" pageWidth="827" pageHeight="1169" math="0" shadow="0">
      <root>
        <mxCell id="WIyWlLk6GJQsqaUBKTNV-0" />
        <mxCell id="WIyWlLk6GJQsqaUBKTNV-1" parent="WIyWlLk6GJQsqaUBKTNV-0" />
        <mxCell id="WIyWlLk6GJQsqaUBKTNV-2" value="" style="rounded=0;html=1;jettySize=auto;orthogonalLoop=1;fontSize=11;endArrow=block;endFill=0;endSize=8;strokeWidth=1;shadow=0;labelBackgroundColor=none;edgeStyle=orthogonalEdgeStyle;" parent="WIyWlLk6GJQsqaUBKTNV-1" source="WIyWlLk6GJQsqaUBKTNV-3" target="WIyWlLk6GJQsqaUBKTNV-6" edge="1">
          <mxGeometry relative="1" as="geometry" />
        </mxCell>
        <mxCell id="WIyWlLk6GJQsqaUBKTNV-3" value="Lamp doesn&#39;t work" style="rounded=1;whiteSpace=wrap;html=1;fontSize=12;glass=0;strokeWidth=1;shadow=0;" parent="WIyWlLk6GJQsqaUBKTNV-1" vertex="1">
          <mxGeometry x="160" y="80" width="120" height="40" as="geometry" />
        </mxCell>
        <mxCell id="WIyWlLk6GJQsqaUBKTNV-4" value="Yes" style="rounded=0;html=1;jettySize=auto;orthogonalLoop=1;fontSize=11;endArrow=block;endFill=0;endSize=8;strokeWidth=1;shadow=0;labelBackgroundColor=none;edgeStyle=orthogonalEdgeStyle;" parent="WIyWlLk6GJQsqaUBKTNV-1" source="WIyWlLk6GJQsqaUBKTNV-6" target="WIyWlLk6GJQsqaUBKTNV-10" edge="1">
          <mxGeometry y="20" relative="1" as="geometry">
            <mxPoint as="offset" />
          </mxGeometry>
        </mxCell>
        <mxCell id="WIyWlLk6GJQsqaUBKTNV-5" value="No" style="edgeStyle=orthogonalEdgeStyle;rounded=0;html=1;jettySize=auto;orthogonalLoop=1;fontSize=11;endArrow=block;endFill=0;endSize=8;strokeWidth=1;shadow=0;labelBackgroundColor=none;" parent="WIyWlLk6GJQsqaUBKTNV-1" source="WIyWlLk6GJQsqaUBKTNV-6" target="WIyWlLk6GJQsqaUBKTNV-7" edge="1">
          <mxGeometry y="10" relative="1" as="geometry">
            <mxPoint as="offset" />
          </mxGeometry>
        </mxCell>
        <mxCell id="WIyWlLk6GJQsqaUBKTNV-6" value="Lamp&lt;br&gt;plugged in?" style="rhombus;whiteSpace=wrap;html=1;shadow=0;fontFamily=Helvetica;fontSize=12;align=center;strokeWidth=1;spacing=6;spacingTop=-4;" parent="WIyWlLk6GJQsqaUBKTNV-1" vertex="1">
          <mxGeometry x="170" y="170" width="100" height="80" as="geometry" />
        </mxCell>
        <mxCell id="YVHDOQG_T9YWMqw5rcu7-23" value="" style="edgeStyle=orthogonalEdgeStyle;rounded=0;orthogonalLoop=1;jettySize=auto;html=1;" edge="1" parent="WIyWlLk6GJQsqaUBKTNV-1" source="WIyWlLk6GJQsqaUBKTNV-7" target="WIyWlLk6GJQsqaUBKTNV-6">
          <mxGeometry relative="1" as="geometry" />
        </mxCell>
        <mxCell id="WIyWlLk6GJQsqaUBKTNV-7" value="Plug in lamp" style="rounded=1;whiteSpace=wrap;html=1;fontSize=12;glass=0;strokeWidth=1;shadow=0;" parent="WIyWlLk6GJQsqaUBKTNV-1" vertex="1">
          <mxGeometry x="320" y="190" width="120" height="40" as="geometry" />
        </mxCell>
        <mxCell id="WIyWlLk6GJQsqaUBKTNV-8" value="No" style="rounded=0;html=1;jettySize=auto;orthogonalLoop=1;fontSize=11;endArrow=block;endFill=0;endSize=8;strokeWidth=1;shadow=0;labelBackgroundColor=none;edgeStyle=orthogonalEdgeStyle;" parent="WIyWlLk6GJQsqaUBKTNV-1" source="WIyWlLk6GJQsqaUBKTNV-10" target="WIyWlLk6GJQsqaUBKTNV-11" edge="1">
          <mxGeometry x="0.3333" y="20" relative="1" as="geometry">
            <mxPoint as="offset" />
          </mxGeometry>
        </mxCell>
        <mxCell id="WIyWlLk6GJQsqaUBKTNV-9" value="Yes" style="edgeStyle=orthogonalEdgeStyle;rounded=0;html=1;jettySize=auto;orthogonalLoop=1;fontSize=11;endArrow=block;endFill=0;endSize=8;strokeWidth=1;shadow=0;labelBackgroundColor=none;" parent="WIyWlLk6GJQsqaUBKTNV-1" source="WIyWlLk6GJQsqaUBKTNV-10" target="WIyWlLk6GJQsqaUBKTNV-12" edge="1">
          <mxGeometry y="10" relative="1" as="geometry">
            <mxPoint as="offset" />
          </mxGeometry>
        </mxCell>
        <mxCell id="WIyWlLk6GJQsqaUBKTNV-10" value="Bulb&lt;br&gt;burned out?" style="rhombus;whiteSpace=wrap;html=1;shadow=0;fontFamily=Helvetica;fontSize=12;align=center;strokeWidth=1;spacing=6;spacingTop=-4;" parent="WIyWlLk6GJQsqaUBKTNV-1" vertex="1">
          <mxGeometry x="170" y="290" width="100" height="80" as="geometry" />
        </mxCell>
        <mxCell id="WIyWlLk6GJQsqaUBKTNV-11" value="Repair Lamp" style="rounded=1;whiteSpace=wrap;html=1;fontSize=12;glass=0;strokeWidth=1;shadow=0;" parent="WIyWlLk6GJQsqaUBKTNV-1" vertex="1">
          <mxGeometry x="160" y="430" width="120" height="40" as="geometry" />
        </mxCell>
        <mxCell id="WIyWlLk6GJQsqaUBKTNV-12" value="Replace Bulb" style="rounded=1;whiteSpace=wrap;html=1;fontSize=12;glass=0;strokeWidth=1;shadow=0;" parent="WIyWlLk6GJQsqaUBKTNV-1" vertex="1">
          <mxGeometry x="320" y="310" width="120" height="40" as="geometry" />
        </mxCell>
        <mxCell id="IUm55pQDGk9Sm5fYaL_C-4" value="" style="group" parent="WIyWlLk6GJQsqaUBKTNV-1" vertex="1" connectable="0">
          <mxGeometry x="1194" y="636" width="50" height="50" as="geometry" />
        </mxCell>
        <mxCell id="IUm55pQDGk9Sm5fYaL_C-1" value="" style="strokeWidth=2;html=1;shape=mxgraph.flowchart.start_2;whiteSpace=wrap;aspect=fixed;" parent="IUm55pQDGk9Sm5fYaL_C-4" vertex="1">
          <mxGeometry width="50" height="50" as="geometry" />
        </mxCell>
        <mxCell id="IUm55pQDGk9Sm5fYaL_C-3" value="" style="strokeWidth=2;html=1;shape=mxgraph.flowchart.start_2;whiteSpace=wrap;aspect=fixed;fillColor=#000000;" parent="IUm55pQDGk9Sm5fYaL_C-4" vertex="1">
          <mxGeometry x="9.5" y="9.5" width="31" height="31" as="geometry" />
        </mxCell>
        <mxCell id="YVHDOQG_T9YWMqw5rcu7-90" style="edgeStyle=orthogonalEdgeStyle;rounded=0;orthogonalLoop=1;jettySize=auto;html=1;exitX=0.5;exitY=1;exitDx=0;exitDy=0;exitPerimeter=0;entryX=0.5;entryY=0;entryDx=0;entryDy=0;" edge="1" parent="WIyWlLk6GJQsqaUBKTNV-1" source="IUm55pQDGk9Sm5fYaL_C-7" target="YVHDOQG_T9YWMqw5rcu7-0">
          <mxGeometry relative="1" as="geometry" />
        </mxCell>
        <mxCell id="IUm55pQDGk9Sm5fYaL_C-7" value="" style="strokeWidth=2;html=1;shape=mxgraph.flowchart.start_2;whiteSpace=wrap;aspect=fixed;" parent="WIyWlLk6GJQsqaUBKTNV-1" vertex="1">
          <mxGeometry x="784" y="-6" width="50" height="50" as="geometry" />
        </mxCell>
        <mxCell id="YVHDOQG_T9YWMqw5rcu7-91" style="edgeStyle=orthogonalEdgeStyle;rounded=0;orthogonalLoop=1;jettySize=auto;html=1;exitX=0.5;exitY=1;exitDx=0;exitDy=0;entryX=0.5;entryY=0;entryDx=0;entryDy=0;" edge="1" parent="WIyWlLk6GJQsqaUBKTNV-1" source="YVHDOQG_T9YWMqw5rcu7-0" target="YVHDOQG_T9YWMqw5rcu7-2">
          <mxGeometry relative="1" as="geometry" />
        </mxCell>
        <mxCell id="YVHDOQG_T9YWMqw5rcu7-0" value="选择对应项目并且开启需求" style="rounded=1;whiteSpace=wrap;html=1;fontSize=12;glass=0;strokeWidth=1;shadow=0;" vertex="1" parent="WIyWlLk6GJQsqaUBKTNV-1">
          <mxGeometry x="749" y="86" width="120" height="40" as="geometry" />
        </mxCell>
        <mxCell id="YVHDOQG_T9YWMqw5rcu7-92" style="edgeStyle=orthogonalEdgeStyle;rounded=0;orthogonalLoop=1;jettySize=auto;html=1;exitX=0.5;exitY=1;exitDx=0;exitDy=0;entryX=0.5;entryY=0;entryDx=0;entryDy=0;" edge="1" parent="WIyWlLk6GJQsqaUBKTNV-1" source="YVHDOQG_T9YWMqw5rcu7-2" target="YVHDOQG_T9YWMqw5rcu7-3">
          <mxGeometry relative="1" as="geometry" />
        </mxCell>
        <mxCell id="YVHDOQG_T9YWMqw5rcu7-2" value="点击项目设置" style="rounded=1;whiteSpace=wrap;html=1;fontSize=12;glass=0;strokeWidth=1;shadow=0;" vertex="1" parent="WIyWlLk6GJQsqaUBKTNV-1">
          <mxGeometry x="749" y="163" width="120" height="40" as="geometry" />
        </mxCell>
        <mxCell id="YVHDOQG_T9YWMqw5rcu7-93" style="edgeStyle=orthogonalEdgeStyle;rounded=0;orthogonalLoop=1;jettySize=auto;html=1;exitX=0.5;exitY=1;exitDx=0;exitDy=0;entryX=0.5;entryY=0;entryDx=0;entryDy=0;" edge="1" parent="WIyWlLk6GJQsqaUBKTNV-1" source="YVHDOQG_T9YWMqw5rcu7-3" target="YVHDOQG_T9YWMqw5rcu7-7">
          <mxGeometry relative="1" as="geometry" />
        </mxCell>
        <mxCell id="YVHDOQG_T9YWMqw5rcu7-3" value="点击公共模版库" style="rounded=1;whiteSpace=wrap;html=1;fontSize=12;glass=0;strokeWidth=1;shadow=0;" vertex="1" parent="WIyWlLk6GJQsqaUBKTNV-1">
          <mxGeometry x="749" y="238" width="120" height="40" as="geometry" />
        </mxCell>
        <mxCell id="YVHDOQG_T9YWMqw5rcu7-87" style="edgeStyle=orthogonalEdgeStyle;rounded=0;orthogonalLoop=1;jettySize=auto;html=1;exitX=0.5;exitY=1;exitDx=0;exitDy=0;entryX=0.5;entryY=0;entryDx=0;entryDy=0;" edge="1" parent="WIyWlLk6GJQsqaUBKTNV-1" source="YVHDOQG_T9YWMqw5rcu7-4">
          <mxGeometry relative="1" as="geometry">
            <mxPoint x="1217" y="76" as="targetPoint" />
            <Array as="points">
              <mxPoint x="809" y="632" />
              <mxPoint x="906" y="632" />
              <mxPoint x="906" y="2" />
              <mxPoint x="1217" y="2" />
            </Array>
          </mxGeometry>
        </mxCell>
        <mxCell id="YVHDOQG_T9YWMqw5rcu7-4" value="编辑模版" style="rounded=1;whiteSpace=wrap;html=1;fontSize=12;glass=0;strokeWidth=1;shadow=0;" vertex="1" parent="WIyWlLk6GJQsqaUBKTNV-1">
          <mxGeometry x="749" y="572" width="120" height="40" as="geometry" />
        </mxCell>
        <mxCell id="YVHDOQG_T9YWMqw5rcu7-14" style="edgeStyle=orthogonalEdgeStyle;rounded=0;orthogonalLoop=1;jettySize=auto;html=1;exitX=0.5;exitY=1;exitDx=0;exitDy=0;entryX=0;entryY=0.5;entryDx=0;entryDy=0;" edge="1" parent="WIyWlLk6GJQsqaUBKTNV-1" source="YVHDOQG_T9YWMqw5rcu7-5" target="YVHDOQG_T9YWMqw5rcu7-4">
          <mxGeometry relative="1" as="geometry" />
        </mxCell>
        <mxCell id="YVHDOQG_T9YWMqw5rcu7-5" value="create_new_template&lt;div&gt;创建新模版&lt;/div&gt;" style="rounded=1;whiteSpace=wrap;html=1;fontSize=12;glass=0;strokeWidth=1;shadow=0;" vertex="1" parent="WIyWlLk6GJQsqaUBKTNV-1">
          <mxGeometry x="597" y="386" width="120" height="40" as="geometry" />
        </mxCell>
        <mxCell id="YVHDOQG_T9YWMqw5rcu7-15" style="edgeStyle=orthogonalEdgeStyle;rounded=0;orthogonalLoop=1;jettySize=auto;html=1;exitX=0.5;exitY=1;exitDx=0;exitDy=0;entryX=0.5;entryY=0;entryDx=0;entryDy=0;" edge="1" parent="WIyWlLk6GJQsqaUBKTNV-1" source="YVHDOQG_T9YWMqw5rcu7-6" target="YVHDOQG_T9YWMqw5rcu7-4">
          <mxGeometry relative="1" as="geometry" />
        </mxCell>
        <mxCell id="YVHDOQG_T9YWMqw5rcu7-6" value="修改现存模版" style="rounded=1;whiteSpace=wrap;html=1;fontSize=12;glass=0;strokeWidth=1;shadow=0;" vertex="1" parent="WIyWlLk6GJQsqaUBKTNV-1">
          <mxGeometry x="751" y="501" width="120" height="40" as="geometry" />
        </mxCell>
        <mxCell id="YVHDOQG_T9YWMqw5rcu7-16" style="edgeStyle=orthogonalEdgeStyle;rounded=0;orthogonalLoop=1;jettySize=auto;html=1;exitX=0.5;exitY=1;exitDx=0;exitDy=0;entryX=0.5;entryY=0;entryDx=0;entryDy=0;" edge="1" parent="WIyWlLk6GJQsqaUBKTNV-1" source="YVHDOQG_T9YWMqw5rcu7-7" target="YVHDOQG_T9YWMqw5rcu7-8">
          <mxGeometry relative="1" as="geometry" />
        </mxCell>
        <mxCell id="YVHDOQG_T9YWMqw5rcu7-7" value="调用StoryCommonTemplateService获取模版信息" style="rounded=1;whiteSpace=wrap;html=1;fontSize=12;glass=0;strokeWidth=1;shadow=0;" vertex="1" parent="WIyWlLk6GJQsqaUBKTNV-1">
          <mxGeometry x="727" y="303.5" width="168" height="40" as="geometry" />
        </mxCell>
        <mxCell id="YVHDOQG_T9YWMqw5rcu7-10" style="edgeStyle=orthogonalEdgeStyle;rounded=0;orthogonalLoop=1;jettySize=auto;html=1;exitX=0.5;exitY=1;exitDx=0;exitDy=0;entryX=0.5;entryY=0;entryDx=0;entryDy=0;" edge="1" parent="WIyWlLk6GJQsqaUBKTNV-1" source="YVHDOQG_T9YWMqw5rcu7-8" target="YVHDOQG_T9YWMqw5rcu7-6">
          <mxGeometry relative="1" as="geometry" />
        </mxCell>
        <mxCell id="YVHDOQG_T9YWMqw5rcu7-12" value="Yes" style="edgeLabel;html=1;align=center;verticalAlign=middle;resizable=0;points=[];" vertex="1" connectable="0" parent="YVHDOQG_T9YWMqw5rcu7-10">
          <mxGeometry x="-0.1273" y="-1" relative="1" as="geometry">
            <mxPoint as="offset" />
          </mxGeometry>
        </mxCell>
        <mxCell id="YVHDOQG_T9YWMqw5rcu7-13" style="edgeStyle=orthogonalEdgeStyle;rounded=0;orthogonalLoop=1;jettySize=auto;html=1;exitX=0;exitY=0.5;exitDx=0;exitDy=0;entryX=1;entryY=0.5;entryDx=0;entryDy=0;" edge="1" parent="WIyWlLk6GJQsqaUBKTNV-1" source="YVHDOQG_T9YWMqw5rcu7-8" target="YVHDOQG_T9YWMqw5rcu7-5">
          <mxGeometry relative="1" as="geometry" />
        </mxCell>
        <mxCell id="YVHDOQG_T9YWMqw5rcu7-8" value="传入template_id" style="rhombus;whiteSpace=wrap;html=1;shadow=0;fontFamily=Helvetica;fontSize=12;align=center;strokeWidth=1;spacing=6;spacingTop=-4;" vertex="1" parent="WIyWlLk6GJQsqaUBKTNV-1">
          <mxGeometry x="761" y="366" width="100" height="80" as="geometry" />
        </mxCell>
        <mxCell id="YVHDOQG_T9YWMqw5rcu7-18" value="" style="endArrow=none;html=1;rounded=0;strokeWidth=4;" edge="1" parent="WIyWlLk6GJQsqaUBKTNV-1">
          <mxGeometry width="50" height="50" relative="1" as="geometry">
            <mxPoint x="958" y="90" as="sourcePoint" />
            <mxPoint x="1507" y="90" as="targetPoint" />
          </mxGeometry>
        </mxCell>
        <mxCell id="YVHDOQG_T9YWMqw5rcu7-39" style="edgeStyle=orthogonalEdgeStyle;rounded=0;orthogonalLoop=1;jettySize=auto;html=1;exitX=0.5;exitY=1;exitDx=0;exitDy=0;entryX=0.5;entryY=0;entryDx=0;entryDy=0;" edge="1" parent="WIyWlLk6GJQsqaUBKTNV-1" source="YVHDOQG_T9YWMqw5rcu7-21" target="YVHDOQG_T9YWMqw5rcu7-29">
          <mxGeometry relative="1" as="geometry" />
        </mxCell>
        <mxCell id="YVHDOQG_T9YWMqw5rcu7-21" value="设置子工作项标题" style="rounded=1;whiteSpace=wrap;html=1;fontSize=12;glass=0;strokeWidth=1;shadow=0;" vertex="1" parent="WIyWlLk6GJQsqaUBKTNV-1">
          <mxGeometry x="1340" y="268" width="120" height="40" as="geometry" />
        </mxCell>
        <mxCell id="YVHDOQG_T9YWMqw5rcu7-38" value="是" style="edgeStyle=orthogonalEdgeStyle;rounded=0;orthogonalLoop=1;jettySize=auto;html=1;exitX=0.5;exitY=1;exitDx=0;exitDy=0;entryX=0.5;entryY=0;entryDx=0;entryDy=0;" edge="1" parent="WIyWlLk6GJQsqaUBKTNV-1" source="YVHDOQG_T9YWMqw5rcu7-22" target="YVHDOQG_T9YWMqw5rcu7-21">
          <mxGeometry relative="1" as="geometry" />
        </mxCell>
        <mxCell id="YVHDOQG_T9YWMqw5rcu7-45" style="edgeStyle=orthogonalEdgeStyle;rounded=0;orthogonalLoop=1;jettySize=auto;html=1;exitX=1;exitY=0.5;exitDx=0;exitDy=0;entryX=0.5;entryY=0;entryDx=0;entryDy=0;" edge="1" parent="WIyWlLk6GJQsqaUBKTNV-1" source="YVHDOQG_T9YWMqw5rcu7-22" target="YVHDOQG_T9YWMqw5rcu7-26">
          <mxGeometry relative="1" as="geometry" />
        </mxCell>
        <mxCell id="YVHDOQG_T9YWMqw5rcu7-46" value="否" style="edgeLabel;html=1;align=center;verticalAlign=middle;resizable=0;points=[];" vertex="1" connectable="0" parent="YVHDOQG_T9YWMqw5rcu7-45">
          <mxGeometry x="-0.2648" y="1" relative="1" as="geometry">
            <mxPoint as="offset" />
          </mxGeometry>
        </mxCell>
        <mxCell id="YVHDOQG_T9YWMqw5rcu7-22" value="是否添加预设子工作项目" style="rhombus;whiteSpace=wrap;html=1;shadow=0;fontFamily=Helvetica;fontSize=12;align=center;strokeWidth=1;spacing=6;spacingTop=-4;" vertex="1" parent="WIyWlLk6GJQsqaUBKTNV-1">
          <mxGeometry x="1350" y="163" width="100" height="55" as="geometry" />
        </mxCell>
        <mxCell id="YVHDOQG_T9YWMqw5rcu7-24" value="" style="endArrow=none;html=1;rounded=0;strokeWidth=4;" edge="1" parent="WIyWlLk6GJQsqaUBKTNV-1">
          <mxGeometry width="50" height="50" relative="1" as="geometry">
            <mxPoint x="958" y="599" as="sourcePoint" />
            <mxPoint x="1507" y="599" as="targetPoint" />
          </mxGeometry>
        </mxCell>
        <mxCell id="YVHDOQG_T9YWMqw5rcu7-47" style="edgeStyle=orthogonalEdgeStyle;rounded=0;orthogonalLoop=1;jettySize=auto;html=1;exitX=0.5;exitY=1;exitDx=0;exitDy=0;" edge="1" parent="WIyWlLk6GJQsqaUBKTNV-1" source="YVHDOQG_T9YWMqw5rcu7-26">
          <mxGeometry relative="1" as="geometry">
            <mxPoint x="1472" y="591" as="targetPoint" />
          </mxGeometry>
        </mxCell>
        <mxCell id="YVHDOQG_T9YWMqw5rcu7-26" value="配置子工作项结束" style="rounded=1;whiteSpace=wrap;html=1;fontSize=12;glass=0;strokeWidth=1;shadow=0;" vertex="1" parent="WIyWlLk6GJQsqaUBKTNV-1">
          <mxGeometry x="1492" y="422" width="120" height="40" as="geometry" />
        </mxCell>
        <mxCell id="YVHDOQG_T9YWMqw5rcu7-40" style="edgeStyle=orthogonalEdgeStyle;rounded=0;orthogonalLoop=1;jettySize=auto;html=1;exitX=0.5;exitY=1;exitDx=0;exitDy=0;entryX=0.5;entryY=0;entryDx=0;entryDy=0;" edge="1" parent="WIyWlLk6GJQsqaUBKTNV-1" source="YVHDOQG_T9YWMqw5rcu7-29" target="YVHDOQG_T9YWMqw5rcu7-30">
          <mxGeometry relative="1" as="geometry" />
        </mxCell>
        <mxCell id="YVHDOQG_T9YWMqw5rcu7-29" value="设置子工作项模版" style="rounded=1;whiteSpace=wrap;html=1;fontSize=12;glass=0;strokeWidth=1;shadow=0;" vertex="1" parent="WIyWlLk6GJQsqaUBKTNV-1">
          <mxGeometry x="1340" y="335" width="120" height="40" as="geometry" />
        </mxCell>
        <mxCell id="YVHDOQG_T9YWMqw5rcu7-41" style="edgeStyle=orthogonalEdgeStyle;rounded=0;orthogonalLoop=1;jettySize=auto;html=1;exitX=0.5;exitY=1;exitDx=0;exitDy=0;entryX=0.5;entryY=0;entryDx=0;entryDy=0;" edge="1" parent="WIyWlLk6GJQsqaUBKTNV-1" source="YVHDOQG_T9YWMqw5rcu7-30" target="YVHDOQG_T9YWMqw5rcu7-31">
          <mxGeometry relative="1" as="geometry" />
        </mxCell>
        <mxCell id="YVHDOQG_T9YWMqw5rcu7-30" value="设置子工作项处理人" style="rounded=1;whiteSpace=wrap;html=1;fontSize=12;glass=0;strokeWidth=1;shadow=0;" vertex="1" parent="WIyWlLk6GJQsqaUBKTNV-1">
          <mxGeometry x="1340" y="390" width="120" height="40" as="geometry" />
        </mxCell>
        <mxCell id="YVHDOQG_T9YWMqw5rcu7-42" style="edgeStyle=orthogonalEdgeStyle;rounded=0;orthogonalLoop=1;jettySize=auto;html=1;exitX=0.5;exitY=1;exitDx=0;exitDy=0;entryX=0.5;entryY=0;entryDx=0;entryDy=0;" edge="1" parent="WIyWlLk6GJQsqaUBKTNV-1" source="YVHDOQG_T9YWMqw5rcu7-31" target="YVHDOQG_T9YWMqw5rcu7-32">
          <mxGeometry relative="1" as="geometry" />
        </mxCell>
        <mxCell id="YVHDOQG_T9YWMqw5rcu7-31" value="配置是否以父工作项作为标题前缀或后缀" style="rounded=1;whiteSpace=wrap;html=1;fontSize=12;glass=0;strokeWidth=1;shadow=0;" vertex="1" parent="WIyWlLk6GJQsqaUBKTNV-1">
          <mxGeometry x="1342" y="448" width="120" height="40" as="geometry" />
        </mxCell>
        <mxCell id="YVHDOQG_T9YWMqw5rcu7-44" style="rounded=0;orthogonalLoop=1;jettySize=auto;html=1;exitX=0.5;exitY=1;exitDx=0;exitDy=0;elbow=vertical;edgeStyle=orthogonalEdgeStyle;" edge="1" parent="WIyWlLk6GJQsqaUBKTNV-1" source="YVHDOQG_T9YWMqw5rcu7-32">
          <mxGeometry relative="1" as="geometry">
            <mxPoint x="1398" y="122" as="targetPoint" />
            <Array as="points">
              <mxPoint x="1402" y="564" />
              <mxPoint x="1330" y="564" />
              <mxPoint x="1330" y="122" />
              <mxPoint x="1350" y="122" />
            </Array>
          </mxGeometry>
        </mxCell>
        <mxCell id="YVHDOQG_T9YWMqw5rcu7-32" value="添加完成" style="rounded=1;whiteSpace=wrap;html=1;fontSize=12;glass=0;strokeWidth=1;shadow=0;" vertex="1" parent="WIyWlLk6GJQsqaUBKTNV-1">
          <mxGeometry x="1342" y="504" width="120" height="40" as="geometry" />
        </mxCell>
        <mxCell id="YVHDOQG_T9YWMqw5rcu7-35" value="" style="endArrow=classic;html=1;rounded=0;entryX=0.5;entryY=0;entryDx=0;entryDy=0;" edge="1" parent="WIyWlLk6GJQsqaUBKTNV-1" target="YVHDOQG_T9YWMqw5rcu7-22">
          <mxGeometry width="50" height="50" relative="1" as="geometry">
            <mxPoint x="1400" y="90" as="sourcePoint" />
            <mxPoint x="1276" y="277" as="targetPoint" />
          </mxGeometry>
        </mxCell>
        <mxCell id="YVHDOQG_T9YWMqw5rcu7-81" style="edgeStyle=orthogonalEdgeStyle;rounded=0;orthogonalLoop=1;jettySize=auto;html=1;exitX=0.5;exitY=1;exitDx=0;exitDy=0;entryX=0.5;entryY=0;entryDx=0;entryDy=0;" edge="1" parent="WIyWlLk6GJQsqaUBKTNV-1" source="YVHDOQG_T9YWMqw5rcu7-50" target="YVHDOQG_T9YWMqw5rcu7-66">
          <mxGeometry relative="1" as="geometry" />
        </mxCell>
        <mxCell id="YVHDOQG_T9YWMqw5rcu7-50" value="设置字段默认值" style="rounded=1;whiteSpace=wrap;html=1;fontSize=12;glass=0;strokeWidth=1;shadow=0;" vertex="1" parent="WIyWlLk6GJQsqaUBKTNV-1">
          <mxGeometry x="921" y="244" width="120" height="40" as="geometry" />
        </mxCell>
        <mxCell id="YVHDOQG_T9YWMqw5rcu7-51" value="是" style="edgeStyle=orthogonalEdgeStyle;rounded=0;orthogonalLoop=1;jettySize=auto;html=1;exitX=0.5;exitY=1;exitDx=0;exitDy=0;entryX=0.5;entryY=0;entryDx=0;entryDy=0;" edge="1" parent="WIyWlLk6GJQsqaUBKTNV-1" source="YVHDOQG_T9YWMqw5rcu7-54" target="YVHDOQG_T9YWMqw5rcu7-50">
          <mxGeometry relative="1" as="geometry" />
        </mxCell>
        <mxCell id="YVHDOQG_T9YWMqw5rcu7-52" style="edgeStyle=orthogonalEdgeStyle;rounded=0;orthogonalLoop=1;jettySize=auto;html=1;exitX=1;exitY=0.5;exitDx=0;exitDy=0;entryX=0.5;entryY=0;entryDx=0;entryDy=0;" edge="1" parent="WIyWlLk6GJQsqaUBKTNV-1" source="YVHDOQG_T9YWMqw5rcu7-54" target="YVHDOQG_T9YWMqw5rcu7-56">
          <mxGeometry relative="1" as="geometry" />
        </mxCell>
        <mxCell id="YVHDOQG_T9YWMqw5rcu7-53" value="否" style="edgeLabel;html=1;align=center;verticalAlign=middle;resizable=0;points=[];" vertex="1" connectable="0" parent="YVHDOQG_T9YWMqw5rcu7-52">
          <mxGeometry x="-0.2648" y="1" relative="1" as="geometry">
            <mxPoint as="offset" />
          </mxGeometry>
        </mxCell>
        <mxCell id="YVHDOQG_T9YWMqw5rcu7-54" value="是否配置已存在字段" style="rhombus;whiteSpace=wrap;html=1;shadow=0;fontFamily=Helvetica;fontSize=12;align=center;strokeWidth=1;spacing=6;spacingTop=-4;" vertex="1" parent="WIyWlLk6GJQsqaUBKTNV-1">
          <mxGeometry x="931" y="150" width="100" height="52" as="geometry" />
        </mxCell>
        <mxCell id="YVHDOQG_T9YWMqw5rcu7-80" style="edgeStyle=orthogonalEdgeStyle;rounded=0;orthogonalLoop=1;jettySize=auto;html=1;exitX=0.5;exitY=1;exitDx=0;exitDy=0;" edge="1" parent="WIyWlLk6GJQsqaUBKTNV-1" source="YVHDOQG_T9YWMqw5rcu7-56">
          <mxGeometry relative="1" as="geometry">
            <mxPoint x="1208" y="592" as="targetPoint" />
          </mxGeometry>
        </mxCell>
        <mxCell id="YVHDOQG_T9YWMqw5rcu7-56" value="配置子工作项结束" style="rounded=1;whiteSpace=wrap;html=1;fontSize=12;glass=0;strokeWidth=1;shadow=0;" vertex="1" parent="WIyWlLk6GJQsqaUBKTNV-1">
          <mxGeometry x="1166" y="451" width="84" height="40" as="geometry" />
        </mxCell>
        <mxCell id="YVHDOQG_T9YWMqw5rcu7-63" style="rounded=0;orthogonalLoop=1;jettySize=auto;html=1;exitX=0.5;exitY=1;exitDx=0;exitDy=0;elbow=vertical;edgeStyle=orthogonalEdgeStyle;" edge="1" parent="WIyWlLk6GJQsqaUBKTNV-1" source="YVHDOQG_T9YWMqw5rcu7-64">
          <mxGeometry relative="1" as="geometry">
            <mxPoint x="979" y="109" as="targetPoint" />
            <Array as="points">
              <mxPoint x="983" y="551" />
              <mxPoint x="911" y="551" />
              <mxPoint x="911" y="109" />
              <mxPoint x="931" y="109" />
            </Array>
          </mxGeometry>
        </mxCell>
        <mxCell id="YVHDOQG_T9YWMqw5rcu7-64" value="添加完成" style="rounded=1;whiteSpace=wrap;html=1;fontSize=12;glass=0;strokeWidth=1;shadow=0;" vertex="1" parent="WIyWlLk6GJQsqaUBKTNV-1">
          <mxGeometry x="918" y="491" width="120" height="40" as="geometry" />
        </mxCell>
        <mxCell id="YVHDOQG_T9YWMqw5rcu7-65" value="" style="endArrow=classic;html=1;rounded=0;entryX=0.5;entryY=0;entryDx=0;entryDy=0;" edge="1" parent="WIyWlLk6GJQsqaUBKTNV-1" target="YVHDOQG_T9YWMqw5rcu7-54">
          <mxGeometry width="50" height="50" relative="1" as="geometry">
            <mxPoint x="981" y="92" as="sourcePoint" />
            <mxPoint x="1075" y="173" as="targetPoint" />
          </mxGeometry>
        </mxCell>
        <mxCell id="YVHDOQG_T9YWMqw5rcu7-68" style="edgeStyle=orthogonalEdgeStyle;rounded=0;orthogonalLoop=1;jettySize=auto;html=1;exitX=0.5;exitY=1;exitDx=0;exitDy=0;entryX=0.5;entryY=0;entryDx=0;entryDy=0;" edge="1" parent="WIyWlLk6GJQsqaUBKTNV-1" source="YVHDOQG_T9YWMqw5rcu7-66" target="YVHDOQG_T9YWMqw5rcu7-67">
          <mxGeometry relative="1" as="geometry" />
        </mxCell>
        <mxCell id="YVHDOQG_T9YWMqw5rcu7-70" value="否" style="edgeLabel;html=1;align=center;verticalAlign=middle;resizable=0;points=[];" vertex="1" connectable="0" parent="YVHDOQG_T9YWMqw5rcu7-68">
          <mxGeometry x="-0.6456" y="2" relative="1" as="geometry">
            <mxPoint as="offset" />
          </mxGeometry>
        </mxCell>
        <mxCell id="YVHDOQG_T9YWMqw5rcu7-74" value="是" style="edgeStyle=orthogonalEdgeStyle;rounded=0;orthogonalLoop=1;jettySize=auto;html=1;exitX=1;exitY=0.5;exitDx=0;exitDy=0;entryX=0;entryY=0.5;entryDx=0;entryDy=0;" edge="1" parent="WIyWlLk6GJQsqaUBKTNV-1" source="YVHDOQG_T9YWMqw5rcu7-66" target="YVHDOQG_T9YWMqw5rcu7-72">
          <mxGeometry relative="1" as="geometry" />
        </mxCell>
        <mxCell id="YVHDOQG_T9YWMqw5rcu7-66" value="是否必填" style="rhombus;whiteSpace=wrap;html=1;shadow=0;fontFamily=Helvetica;fontSize=12;align=center;strokeWidth=1;spacing=6;spacingTop=-4;" vertex="1" parent="WIyWlLk6GJQsqaUBKTNV-1">
          <mxGeometry x="928" y="301" width="100" height="47" as="geometry" />
        </mxCell>
        <mxCell id="YVHDOQG_T9YWMqw5rcu7-69" style="edgeStyle=orthogonalEdgeStyle;rounded=0;orthogonalLoop=1;jettySize=auto;html=1;exitX=0.5;exitY=1;exitDx=0;exitDy=0;entryX=0.5;entryY=0;entryDx=0;entryDy=0;" edge="1" parent="WIyWlLk6GJQsqaUBKTNV-1" source="YVHDOQG_T9YWMqw5rcu7-67" target="YVHDOQG_T9YWMqw5rcu7-64">
          <mxGeometry relative="1" as="geometry" />
        </mxCell>
        <mxCell id="YVHDOQG_T9YWMqw5rcu7-71" value="否" style="edgeLabel;html=1;align=center;verticalAlign=middle;resizable=0;points=[];" vertex="1" connectable="0" parent="YVHDOQG_T9YWMqw5rcu7-69">
          <mxGeometry x="0.0088" y="-1" relative="1" as="geometry">
            <mxPoint y="1" as="offset" />
          </mxGeometry>
        </mxCell>
        <mxCell id="YVHDOQG_T9YWMqw5rcu7-75" style="edgeStyle=orthogonalEdgeStyle;rounded=0;orthogonalLoop=1;jettySize=auto;html=1;exitX=1;exitY=0.5;exitDx=0;exitDy=0;entryX=0;entryY=0.5;entryDx=0;entryDy=0;" edge="1" parent="WIyWlLk6GJQsqaUBKTNV-1" source="YVHDOQG_T9YWMqw5rcu7-67" target="YVHDOQG_T9YWMqw5rcu7-73">
          <mxGeometry relative="1" as="geometry" />
        </mxCell>
        <mxCell id="YVHDOQG_T9YWMqw5rcu7-77" value="是" style="edgeLabel;html=1;align=center;verticalAlign=middle;resizable=0;points=[];" vertex="1" connectable="0" parent="YVHDOQG_T9YWMqw5rcu7-75">
          <mxGeometry x="-0.12" y="-2" relative="1" as="geometry">
            <mxPoint as="offset" />
          </mxGeometry>
        </mxCell>
        <mxCell id="YVHDOQG_T9YWMqw5rcu7-67" value="是否设置联动展示" style="rhombus;whiteSpace=wrap;html=1;shadow=0;fontFamily=Helvetica;fontSize=12;align=center;strokeWidth=1;spacing=6;spacingTop=-4;" vertex="1" parent="WIyWlLk6GJQsqaUBKTNV-1">
          <mxGeometry x="928" y="387.5" width="100" height="47" as="geometry" />
        </mxCell>
        <mxCell id="YVHDOQG_T9YWMqw5rcu7-78" style="edgeStyle=orthogonalEdgeStyle;rounded=0;orthogonalLoop=1;jettySize=auto;html=1;exitX=1;exitY=0.5;exitDx=0;exitDy=0;entryX=1;entryY=0.5;entryDx=0;entryDy=0;" edge="1" parent="WIyWlLk6GJQsqaUBKTNV-1" source="YVHDOQG_T9YWMqw5rcu7-72" target="YVHDOQG_T9YWMqw5rcu7-64">
          <mxGeometry relative="1" as="geometry" />
        </mxCell>
        <mxCell id="YVHDOQG_T9YWMqw5rcu7-72" value="勾选必填" style="rounded=1;whiteSpace=wrap;html=1;fontSize=12;glass=0;strokeWidth=1;shadow=0;" vertex="1" parent="WIyWlLk6GJQsqaUBKTNV-1">
          <mxGeometry x="1053" y="304.5" width="79" height="40" as="geometry" />
        </mxCell>
        <mxCell id="YVHDOQG_T9YWMqw5rcu7-79" style="edgeStyle=orthogonalEdgeStyle;rounded=0;orthogonalLoop=1;jettySize=auto;html=1;exitX=1;exitY=0.5;exitDx=0;exitDy=0;entryX=1;entryY=0.5;entryDx=0;entryDy=0;" edge="1" parent="WIyWlLk6GJQsqaUBKTNV-1" source="YVHDOQG_T9YWMqw5rcu7-73" target="YVHDOQG_T9YWMqw5rcu7-64">
          <mxGeometry relative="1" as="geometry">
            <Array as="points">
              <mxPoint x="1152" y="411" />
              <mxPoint x="1152" y="511" />
            </Array>
          </mxGeometry>
        </mxCell>
        <mxCell id="YVHDOQG_T9YWMqw5rcu7-73" value="配置联动展示字段，以及展示条件" style="rounded=1;whiteSpace=wrap;html=1;fontSize=12;glass=0;strokeWidth=1;shadow=0;" vertex="1" parent="WIyWlLk6GJQsqaUBKTNV-1">
          <mxGeometry x="1053" y="391" width="91" height="40" as="geometry" />
        </mxCell>
        <mxCell id="YVHDOQG_T9YWMqw5rcu7-84" style="edgeStyle=orthogonalEdgeStyle;rounded=0;orthogonalLoop=1;jettySize=auto;html=1;exitX=0.5;exitY=1;exitDx=0;exitDy=0;" edge="1" parent="WIyWlLk6GJQsqaUBKTNV-1" source="YVHDOQG_T9YWMqw5rcu7-82">
          <mxGeometry relative="1" as="geometry">
            <mxPoint x="1287" y="595" as="targetPoint" />
          </mxGeometry>
        </mxCell>
        <mxCell id="YVHDOQG_T9YWMqw5rcu7-82" value="设置模版基础内容（标题、名称、详细）" style="rounded=1;whiteSpace=wrap;html=1;fontSize=12;glass=0;strokeWidth=1;shadow=0;" vertex="1" parent="WIyWlLk6GJQsqaUBKTNV-1">
          <mxGeometry x="1192" y="123" width="120" height="40" as="geometry" />
        </mxCell>
        <mxCell id="YVHDOQG_T9YWMqw5rcu7-83" value="" style="endArrow=classic;html=1;rounded=0;entryX=0.5;entryY=0;entryDx=0;entryDy=0;" edge="1" parent="WIyWlLk6GJQsqaUBKTNV-1" target="YVHDOQG_T9YWMqw5rcu7-82">
          <mxGeometry width="50" height="50" relative="1" as="geometry">
            <mxPoint x="1252" y="93" as="sourcePoint" />
            <mxPoint x="1410" y="173" as="targetPoint" />
          </mxGeometry>
        </mxCell>
        <mxCell id="YVHDOQG_T9YWMqw5rcu7-89" value="" style="endArrow=classic;html=1;rounded=0;entryX=0.5;entryY=0;entryDx=0;entryDy=0;" edge="1" parent="WIyWlLk6GJQsqaUBKTNV-1">
          <mxGeometry width="50" height="50" relative="1" as="geometry">
            <mxPoint x="1218.7" y="604" as="sourcePoint" />
            <mxPoint x="1218.7" y="634" as="targetPoint" />
          </mxGeometry>
        </mxCell>
      </root>
    </mxGraphModel>
  </diagram>
</mxfile>
